<?xml version="1.0" encoding="UTF-8"?>
<svg version="1.1" xmlns="http://www.w3.org/2000/svg" width="300" height="248">
<path d="M0 0 C15.98730641 12.08267881 27.26894327 28.99552202 30.70263672 48.82128906 C33.80816967 71.57479981 26.01102353 90.96222484 14.375 110.1875 C13.65675208 111.38547397 12.93881979 112.58363723 12.22119141 113.78198242 C7.13724087 122.24297194 1.86090821 130.56484401 -3.56787109 138.80810547 C-6.39718899 143.13841847 -9.16366698 147.5090252 -11.9375 151.875 C-12.82369019 153.26875854 -12.82369019 153.26875854 -13.7277832 154.69067383 C-17.09336744 159.98762612 -20.44952725 165.29044695 -23.79736328 170.59863281 C-25.27430382 172.9394622 -26.75420985 175.27839624 -28.234375 177.6171875 C-30.05077978 180.48872838 -31.85129993 183.3693306 -33.640625 186.2578125 C-34.4477708 187.54696634 -35.25505401 188.83603416 -36.0625 190.125 C-36.75472656 191.24132812 -37.44695312 192.35765625 -38.16015625 193.5078125 C-40 196 -40 196 -43 197 C-52.31240168 182.8272946 -61.57515156 168.63268307 -70.58056641 154.26220703 C-72.54353684 151.133744 -74.51636938 148.01155466 -76.48974609 144.88964844 C-77.4921554 143.30355366 -78.49379018 141.71696911 -79.49462891 140.12988281 C-82.0194164 136.12686896 -84.55361449 132.13035316 -87.10546875 128.14453125 C-104.09193536 101.55864863 -120.3132363 75.04226161 -113.1640625 42.26171875 C-110.08817993 30.01200224 -103.73494239 19.05683307 -95 10 C-94.24074219 9.21238281 -93.48148438 8.42476562 -92.69921875 7.61328125 C-67.89699878 -16.29589643 -28.4057937 -19.29108858 0 0 Z M-72 24 C-72.68835938 24.55171875 -73.37671875 25.1034375 -74.0859375 25.671875 C-82.79916031 33.48372993 -88.44607801 45.57833424 -89.2109375 57.20703125 C-89.60431209 71.17182926 -86.0465152 83.814415 -76.375 94.25 C-68.50523155 101.59108919 -58.90572298 107.166077 -48 107 C-47.44135836 102.67274409 -46.93887944 98.67626292 -49.34765625 94.87109375 C-50.55294549 93.55984501 -51.78749114 92.27500886 -53.046875 91.015625 C-59.63849092 84.21307737 -62.19694648 77.99212781 -62.1875 68.625 C-62.1862915 67.38024902 -62.1862915 67.38024902 -62.18505859 66.11035156 C-62.12339609 59.62732548 -61.72348829 53.20451007 -61.125 46.75 C-61.04660889 45.88197754 -60.96821777 45.01395508 -60.88745117 44.11962891 C-60.38936071 39.20940254 -59.66377017 34.65855647 -58 30 C-57.34 29.67 -56.68 29.34 -56 29 C-54.52539062 30.00976562 -54.52539062 30.00976562 -53 32 C-52.7050295 34.68767539 -52.58278537 37.15566251 -52.59375 39.84375 C-52.58291382 40.60925171 -52.57207764 41.37475342 -52.56091309 42.16345215 C-52.51502965 45.43719351 -52.50356657 48.71085788 -52.48876953 51.98486328 C-52.4730878 54.37561373 -52.44008983 56.76569887 -52.40625 59.15625 C-52.40927124 59.89693726 -52.41229248 60.63762451 -52.41540527 61.40075684 C-52.38182088 65.488836 -52.38182088 65.488836 -50.47460938 68.99023438 C-49.98798828 69.32345703 -49.50136719 69.65667969 -49 70 C-48.34 69.67 -47.68 69.34 -47 69 C-45.74561049 60.96200403 -45.66483493 52.82615287 -45.39453125 44.70703125 C-45.19988308 39.39783466 -44.89060771 34.23974201 -44 29 C-41.5625 29.6875 -41.5625 29.6875 -39 31 C-37.76499684 35.07697001 -37.80166565 39.25456041 -37.68359375 43.48828125 C-37.66281265 44.19147995 -37.64203156 44.89467865 -37.62062073 45.6191864 C-37.55559885 47.85019817 -37.49646224 50.08132069 -37.4375 52.3125 C-37.39426964 53.83139134 -37.35065395 55.35027177 -37.30664062 56.86914062 C-37.19996666 60.5793112 -37.09856779 64.28960421 -37 68 C-35.35 68.33 -33.7 68.66 -32 69 C-31.12484455 60.61031956 -30.71466957 52.24118112 -30.4375 43.8125 C-30.37272461 41.9552832 -30.37272461 41.9552832 -30.30664062 40.06054688 C-30.20169508 37.04044738 -30.09953456 34.02028184 -30 31 C-28.68 30.34 -27.36 29.68 -26 29 C-23.72378423 32.41432365 -23.55511316 34.28411946 -23.1484375 38.328125 C-23.01953125 39.60429688 -22.890625 40.88046875 -22.7578125 42.1953125 C-22.6949707 42.86336914 -22.63212891 43.53142578 -22.56738281 44.21972656 C-22.37951865 46.20231338 -22.17434478 48.18323585 -21.96875 50.1640625 C-19.25274056 77.93387335 -19.25274056 77.93387335 -26 87 C-28.02724039 89.08925922 -30.12860666 91.07010696 -32.2578125 93.0546875 C-35.08866377 96.21559318 -35.51227181 98.81947265 -36 103 C-35.57271442 105.17012476 -35.57271442 105.17012476 -35 107 C-24.01318946 106.57743036 -14.99494623 100.87860034 -7.19140625 93.42578125 C3.12339772 82.00778969 5.65959387 68.91981038 5.13623047 54.03808594 C4.35747337 42.3874332 -2.624624 31.74795236 -11 24 C-29.46240926 10.71748299 -53.78093038 9.39744982 -72 24 Z " fill="#E65C1A" transform="translate(180,12)"/>
<path d="M0 0 C3.35399849 -0.0878954 6.7076964 -0.14068879 10.0625 -0.1875 C11.00544922 -0.21263672 11.94839844 -0.23777344 12.91992188 -0.26367188 C20.30623405 -0.34088071 25.14531028 0.51766111 30.875 5.5 C34.99243894 10.34404582 34.4903116 15.92905095 34 22 C32.08608084 26.7344316 28.54631214 29.72684393 24 32 C22.1136088 32.084915 20.22421485 32.107193 18.3359375 32.09765625 C17.21445313 32.09443359 16.09296875 32.09121094 14.9375 32.08789062 C13.761875 32.07951172 12.58625 32.07113281 11.375 32.0625 C10.19164063 32.05798828 9.00828125 32.05347656 7.7890625 32.04882812 C4.85932493 32.03701467 1.92968728 32.02054258 -1 32 C-0.505 30.515 -0.505 30.515 0 29 C0.99 28.67 1.98 28.34 3 28 C3.33 19.75 3.66 11.5 4 3 C2.68 2.67 1.36 2.34 0 2 C0 1.34 0 0.68 0 0 Z M12 3 C12 11.58 12 20.16 12 29 C19.45570612 29.81294768 19.45570612 29.81294768 22.4375 27.125 C26.05012744 22.21182669 25.57124706 16.91317908 25 11 C23.54974397 7.22359074 21.37259179 5.24839453 18 3 C16.02 3 14.04 3 12 3 Z " fill="#E95C1A" transform="translate(101,216)"/>
<path d="M0 0 C4.28814875 2.11610819 6.38476138 5.06305655 8.19921875 9.3125 C9.76049819 14.21805849 9.25172634 17.98156743 7.171875 22.57421875 C4.69635995 27.10388458 1.79928378 29.74008249 -3.140625 31.38671875 C-8.4081178 31.89114114 -12.77241668 32.05838465 -17.578125 29.69921875 C-22.12388413 25.59694831 -24.71744801 22.80707916 -25.16015625 16.4296875 C-25.11725851 11.942584 -24.4315562 8.75406871 -21.29296875 5.4296875 C-14.71845205 -0.42891086 -8.87859557 -2.54368523 0 0 Z M-12.953125 3.69921875 C-15.51620519 7.34149059 -15.33594986 10.95149486 -15.390625 15.26171875 C-15.41640625 16.47601563 -15.4421875 17.6903125 -15.46875 18.94140625 C-15.09105523 22.90720136 -13.97600148 25.55134227 -11.140625 28.38671875 C-7.05954025 28.78957276 -7.05954025 28.78957276 -3.390625 27.26171875 C-0.2552656 22.55867965 0.24848643 17.93155659 -0.140625 12.38671875 C-0.86346648 9.05052732 -1.53632173 6.32338882 -3.390625 3.44921875 C-6.60576883 1.49716714 -9.9017763 1.48962141 -12.953125 3.69921875 Z " fill="#E95C1A" transform="translate(54.140625,216.61328125)"/>
<path d="M0 0 C4.28814875 2.11610819 6.38476138 5.06305655 8.19921875 9.3125 C9.76049819 14.21805849 9.25172634 17.98156743 7.171875 22.57421875 C4.69635995 27.10388458 1.79928378 29.74008249 -3.140625 31.38671875 C-8.4081178 31.89114114 -12.77241668 32.05838465 -17.578125 29.69921875 C-22.12388413 25.59694831 -24.71744801 22.80707916 -25.16015625 16.4296875 C-25.11725851 11.942584 -24.4315562 8.75406871 -21.29296875 5.4296875 C-14.71845205 -0.42891086 -8.87859557 -2.54368523 0 0 Z M-12.953125 3.69921875 C-15.51620519 7.34149059 -15.33594986 10.95149486 -15.390625 15.26171875 C-15.41640625 16.47601563 -15.4421875 17.6903125 -15.46875 18.94140625 C-15.09105523 22.90720136 -13.97600148 25.55134227 -11.140625 28.38671875 C-7.05954025 28.78957276 -7.05954025 28.78957276 -3.390625 27.26171875 C-0.16832034 22.42826175 0.59551899 17.08908786 -0.140625 11.38671875 C-1.20721639 7.87040777 -2.50792753 5.01941622 -5.140625 2.38671875 C-9.31380834 1.91601323 -9.31380834 1.91601323 -12.953125 3.69921875 Z " fill="#E85C1A" transform="translate(90.140625,216.61328125)"/>
<path d="M0 0 C4.28814875 2.11610819 6.38476138 5.06305655 8.19921875 9.3125 C9.76049819 14.21805849 9.25172634 17.98156743 7.171875 22.57421875 C4.69635995 27.10388458 1.79928378 29.74008249 -3.140625 31.38671875 C-8.4081178 31.89114114 -12.77241668 32.05838465 -17.578125 29.69921875 C-22.06138441 25.6533505 -24.76779789 22.79944176 -25.23046875 16.5 C-25.03058224 11.79832172 -23.68918514 8.03541673 -20.44921875 4.5859375 C-14.26199744 -0.82626652 -8.17624249 -2.34246363 0 0 Z M-12.953125 3.69921875 C-15.51620519 7.34149059 -15.33594986 10.95149486 -15.390625 15.26171875 C-15.41640625 16.47601563 -15.4421875 17.6903125 -15.46875 18.94140625 C-15.09105523 22.90720136 -13.97600148 25.55134227 -11.140625 28.38671875 C-7.05954025 28.78957276 -7.05954025 28.78957276 -3.390625 27.26171875 C-0.16832034 22.42826175 0.59551899 17.08908786 -0.140625 11.38671875 C-1.20721639 7.87040777 -2.50792753 5.01941622 -5.140625 2.38671875 C-9.31380834 1.91601323 -9.31380834 1.91601323 -12.953125 3.69921875 Z " fill="#E95D1A" transform="translate(231.140625,216.61328125)"/>
<path d="M0 0 C3.3956697 -0.08745946 6.79104773 -0.14054444 10.1875 -0.1875 C11.14720703 -0.21263672 12.10691406 -0.23777344 13.09570312 -0.26367188 C22.09513128 -0.35709154 22.09513128 -0.35709154 26 3 C28 6 28 6 27.9375 9.4375 C26.82623229 13.66031728 25.65436216 14.7377758 22 17 C19.24921116 17.91692961 17.64051087 18.10886083 14.8125 18.0625 C12.9253125 18.0315625 12.9253125 18.0315625 11 18 C11.06000106 19.6260287 11.1487885 21.25101549 11.25 22.875 C11.29640625 23.77992188 11.3428125 24.68484375 11.390625 25.6171875 C11.75611148 28.17110544 11.75611148 28.17110544 14.046875 29.3203125 C14.69140625 29.54460937 15.3359375 29.76890625 16 30 C16 30.66 16 31.32 16 32 C10.72 32 5.44 32 0 32 C0.495 30.515 0.495 30.515 1 29 C1.66 29 2.32 29 3 29 C3 20.75 3 12.5 3 4 C2.01 3.67 1.02 3.34 0 3 C0 2.01 0 1.02 0 0 Z M11 3 C11 6.96 11 10.92 11 15 C13.93443402 14.73343428 13.93443402 14.73343428 17 14 C19.30163882 10.54754176 19.34490322 9.05261287 19 5 C18.34 4.34 17.68 3.68 17 3 C15.02 3 13.04 3 11 3 Z " fill="#E95D1A" transform="translate(176,216)"/>
<path d="M0 0 C1.28132812 0.00902344 2.56265625 0.01804688 3.8828125 0.02734375 C4.87023437 0.03894531 5.85765625 0.05054688 6.875 0.0625 C8.0327506 3.53575181 7.94366652 6.42317448 7.875 10.0625 C4.875 9.0625 4.875 9.0625 3.0625 6.5 C1.05489813 3.70975477 1.05489813 3.70975477 -2.375 3.75 C-3.2825 3.853125 -4.19 3.95625 -5.125 4.0625 C-5.455 5.3825 -5.785 6.7025 -6.125 8.0625 C-5.38894531 8.36542969 -4.65289062 8.66835937 -3.89453125 8.98046875 C6.86540042 13.59999027 6.86540042 13.59999027 9.875 18.0625 C10.56194925 20.89688722 10.61174269 23.2354641 9.875 26.0625 C7.4375 29 7.4375 29 4.875 31.0625 C4.545 31.3925 4.215 31.7225 3.875 32.0625 C1.01232433 32.13575168 -1.825719 32.15488205 -4.6875 32.125 C-5.49380859 32.12048828 -6.30011719 32.11597656 -7.13085938 32.11132812 C-9.12893756 32.09950518 -11.12697783 32.08156914 -13.125 32.0625 C-13.125 28.1025 -13.125 24.1425 -13.125 20.0625 C-12.465 20.0625 -11.805 20.0625 -11.125 20.0625 C-10.1484375 21.85286458 -9.171875 23.64322917 -8.1953125 25.43359375 C-7.21089976 27.22868315 -7.21089976 27.22868315 -5.125 28.0625 C-2.7920134 28.10272391 -0.45793334 28.10570247 1.875 28.0625 C1.875 26.0825 1.875 24.1025 1.875 22.0625 C1.12734375 21.74796875 0.3796875 21.4334375 -0.390625 21.109375 C-1.37546875 20.68140625 -2.3603125 20.2534375 -3.375 19.8125 C-4.34953125 19.39484375 -5.3240625 18.9771875 -6.328125 18.546875 C-9.23097298 17.00625736 -11.0685815 15.61860898 -13.125 13.0625 C-13.85271233 10.32287712 -13.70471577 7.83035861 -13.125 5.0625 C-9.2302145 -0.00072116 -6.16127806 -0.05601162 0 0 Z " fill="#E85C1A" transform="translate(164.125,215.9375)"/>
<path d="M0 0 C10.89 0 21.78 0 33 0 C34.60725635 3.21451269 34.05748185 6.43612536 34 10 C31 9 31 9 29.75 7.0625 C27.64845756 4.19865649 27.64845756 4.19865649 21 3 C21.33 11.25 21.66 19.5 22 28 C23.32 28.33 24.64 28.66 26 29 C26 29.99 26 30.98 26 32 C19.73 32 13.46 32 7 32 C7.33 31.01 7.66 30.02 8 29 C9.32 29 10.64 29 12 29 C12 20.42 12 11.84 12 3 C4.39139486 4.9808048 4.39139486 4.9808048 2.5 8.1875 C2.2525 9.0846875 2.2525 9.0846875 2 10 C1.01 9.67 0.02 9.34 -1 9 C-0.67 6.03 -0.34 3.06 0 0 Z " fill="#E85B1A" transform="translate(242,216)"/>
<path d="M0 0 C0.69287109 0.01804688 1.38574219 0.03609375 2.09960938 0.0546875 C3.79617664 0.10148936 5.49202476 0.17322376 7.1875 0.25 C7.5175 3.22 7.8475 6.19 8.1875 9.25 C7.1975 9.25 6.2075 9.25 5.1875 9.25 C4.61 8.425 4.0325 7.6 3.4375 6.75 C1.32657914 3.83038351 1.32657914 3.83038351 -2.5625 3.9375 C-3.635 4.040625 -4.7075 4.14375 -5.8125 4.25 C-5.69049008 6.69814737 -5.69049008 6.69814737 -4.8125 9.25 C-2.65543689 10.58000802 -2.65543689 10.58000802 0 11.3125 C7.28959049 13.97179267 7.28959049 13.97179267 9.1875 17.25 C9.84971705 20.73255215 9.90643304 23.77328474 9.1875 27.25 C6.29115854 31.06097561 6.29115854 31.06097561 3.1875 32.25 C-0.19514277 32.64333056 -3.42479881 32.5123865 -6.8125 32.25 C-7.8025 32.25 -8.7925 32.25 -9.8125 32.25 C-10.8025 32.25 -11.7925 32.25 -12.8125 32.25 C-13.1425 28.29 -13.4725 24.33 -13.8125 20.25 C-9.80347581 21.5863414 -9.00358105 23.74427032 -6.8125 27.25 C-5.62825674 28.66577477 -5.62825674 28.66577477 -2.25 28.3125 C-0.5484375 28.2815625 -0.5484375 28.2815625 1.1875 28.25 C1.5175 26.6 1.8475 24.95 2.1875 23.25 C-0.78292065 21.39348709 -3.75433112 19.81975931 -6.9375 18.375 C-10.51712306 16.58180508 -12.44476764 15.17083275 -13.8125 11.25 C-13.8125 7.13633531 -13.59146183 5.07590492 -10.73828125 2.05078125 C-7.08397162 -0.19839998 -4.14536989 -0.20627678 0 0 Z " fill="#EA5D1B" transform="translate(290.8125,215.75)"/>
<path d="M0 0 C8.91 0 17.82 0 27 0 C28.1577506 3.47325181 28.06866652 6.36067448 28 10 C27.195625 9.195625 26.39125 8.39125 25.5625 7.5625 C21.63874722 4.2315444 18.03098364 4.22868107 13 4 C12.67 7.3 12.34 10.6 12 14 C13.65 13.67 15.3 13.34 17 13 C17.33 11.35 17.66 9.7 18 8 C18.99 8.33 19.98 8.66 21 9 C20.67 13.29 20.34 17.58 20 22 C19.01 21.67 18.02 21.34 17 21 C16.67 20.01 16.34 19.02 16 18 C14.68 17.67 13.36 17.34 12 17 C12 20.96 12 24.92 12 29 C13.65 29.33 15.3 29.66 17 30 C17 30.66 17 31.32 17 32 C11.39 32 5.78 32 0 32 C0.495 30.515 0.495 30.515 1 29 C1.99 29 2.98 29 4 29 C3.67 20.75 3.34 12.5 3 4 C2.01 3.67 1.02 3.34 0 3 C0 2.01 0 1.02 0 0 Z " fill="#E95D1B" transform="translate(0,216)"/>
<path d="M0 0 C0.33 0 0.66 0 1 0 C1.02505615 0.89831543 1.0501123 1.79663086 1.07592773 2.72216797 C1.17098693 6.05074869 1.27022421 9.37914994 1.37231445 12.70751953 C1.41566231 14.1488762 1.45733752 15.59028418 1.49731445 17.03173828 C1.55502088 19.10204541 1.61871371 21.17209432 1.68359375 23.2421875 C1.72025146 24.4885498 1.75690918 25.73491211 1.79467773 27.01904297 C1.80289479 29.92636942 1.80289479 29.92636942 3 32 C2.34 32.66 1.68 33.32 1 34 C0 33 0 33 -0.11352539 29.85717773 C-0.11336633 28.46597303 -0.10767506 27.07476239 -0.09765625 25.68359375 C-0.0962413 24.95253922 -0.09482635 24.22148468 -0.09336853 23.46827698 C-0.08775408 21.12464368 -0.07519922 18.78110461 -0.0625 16.4375 C-0.05748686 14.85221492 -0.05292363 13.26692834 -0.04882812 11.68164062 C-0.03777997 7.7877239 -0.02050572 3.89387795 0 0 Z " fill="#F3611B" transform="translate(126,48)"/>
<path d="M0 0 C0.99 0.33 1.98 0.66 3 1 C2.67 5.29 2.34 9.58 2 14 C1.01 13.67 0.02 13.34 -1 13 C-1.33 11.35 -1.66 9.7 -2 8 C-1.34 7.67 -0.68 7.34 0 7 C-0.185625 6.401875 -0.37125 5.80375 -0.5625 5.1875 C-1 3 -1 3 0 0 Z " fill="#E05817" transform="translate(18,224)"/>
<path d="M0 0 C1.51400391 0.01740234 1.51400391 0.01740234 3.05859375 0.03515625 C4.07050781 0.04417969 5.08242187 0.05320313 6.125 0.0625 C7.29869141 0.07990234 7.29869141 0.07990234 8.49609375 0.09765625 C8.49609375 0.42765625 8.49609375 0.75765625 8.49609375 1.09765625 C6.18609375 1.09765625 3.87609375 1.09765625 1.49609375 1.09765625 C1.06296875 2.02578125 1.06296875 2.02578125 0.62109375 2.97265625 C-0.50390625 5.09765625 -0.50390625 5.09765625 -2.50390625 7.09765625 C-3.50390625 6.09765625 -3.50390625 6.09765625 -3.62890625 3.59765625 C-3.46040034 0.22753809 -3.3738912 0.13158702 0 0 Z " fill="#F1601C" transform="translate(246.50390625,216.90234375)"/>
<path d="M0 0 C0.99 0 1.98 0 3 0 C3.33 2.97 3.66 5.94 4 9 C3.01 9 2.02 9 1 9 C0.67 8.34 0.34 7.68 0 7 C0.66 7 1.32 7 2 7 C1.01 5.02 0.02 3.04 -1 1 C-0.67 0.67 -0.34 0.34 0 0 Z " fill="#E45B1B" transform="translate(295,216)"/>
<path d="M0 0 C0.99 0.33 1.98 0.66 3 1 C3 3.31 3 5.62 3 8 C2.34 8 1.68 8 1 8 C0.67 5.36 0.34 2.72 0 0 Z " fill="#EE5417" transform="translate(277,222)"/>
</svg>
