<svg width="114" height="114" viewBox="0 0 114 114" fill="none" xmlns="http://www.w3.org/2000/svg">
<g filter="url(#filter0_i_267_568)">
<circle cx="57" cy="57" r="57" fill="url(#paint0_linear_267_568)"/>
</g>
<path d="M47.9999 39.6914C48.9452 39.6914 49.7616 40.3554 49.9569 41.2812C49.9569 41.2812 50.5428 44.0936 51.6092 47.3827C52.6756 50.6757 54.367 54.4336 55.8084 55.875C57.2498 57.3164 61.0115 59.0078 64.3006 60.0742C67.5936 61.1406 70.4061 61.7265 70.4061 61.7265V61.7304C71.3358 61.9257 71.9999 62.7421 71.9999 63.6874C71.9999 64.6366 71.3358 65.453 70.4061 65.6483C70.4061 65.6483 67.5936 66.2342 64.3006 67.3006C61.0076 68.3669 57.2498 70.0584 55.8084 71.4998C54.367 72.9412 52.6756 76.7029 51.6092 79.992C50.5428 83.285 49.9569 86.0936 49.9569 86.0936V86.0975C49.7616 87.0233 48.9452 87.6873 47.9999 87.6873C47.0507 87.6873 46.2343 87.0232 46.039 86.0975C46.039 86.0975 45.4531 83.285 44.3867 79.9959C43.3203 76.7029 41.6289 72.9451 40.1836 71.5037C38.7422 70.0623 34.9805 68.3709 31.6875 67.3045C28.3945 66.2381 25.5859 65.6522 25.5859 65.6522L25.5898 65.6483C24.664 65.4529 24 64.6366 24 63.6874C24 62.7421 24.6641 61.9257 25.5898 61.7304C25.5898 61.7304 28.4023 61.1444 31.6914 60.0781C34.9844 59.0117 38.7422 57.3203 40.1875 55.8789C41.6289 54.4375 43.3242 50.6758 44.3906 47.3867C45.457 44.0937 46.0429 41.2851 46.0429 41.2851L46.039 41.2811C46.2343 40.3554 47.0507 39.6914 47.9999 39.6914Z" fill="white"/>
<path d="M72 27C72.512 27 72.9542 27.3597 73.06 27.8612C73.06 27.8612 73.3774 29.3848 73.955 31.1665C74.5326 32.9504 75.4488 34.986 76.2296 35.7669C77.0103 36.5477 79.0479 37.4639 80.8295 38.0416C82.6132 38.6193 84.1367 38.9367 84.1367 38.9367V38.9388C84.6403 39.0446 85 39.4869 85 39.9989C85 40.5131 84.6403 40.9554 84.1367 41.0612C84.1367 41.0612 82.6132 41.3786 80.8295 41.9563C79.0458 42.5339 77.0103 43.4502 76.2296 44.231C75.4488 45.0118 74.5326 47.0496 73.955 48.8314C73.3774 50.6152 73.06 52.1367 73.06 52.1367V52.1388C72.9542 52.6403 72.512 53 72 53C71.4858 53 71.0436 52.6403 70.9378 52.1388C70.9378 52.1388 70.6204 50.6152 70.0428 48.8335C69.4652 47.0496 68.549 45.014 67.7661 44.2331C66.9854 43.4523 64.9478 42.5361 63.1641 41.9584C61.3804 41.3807 59.859 41.0633 59.859 41.0633L59.8611 41.0612C59.3597 40.9554 59 40.5131 59 39.9989C59 39.4869 59.3597 39.0446 59.8611 38.9388C59.8611 38.9388 61.3846 38.6214 63.1662 38.0437C64.9499 37.4661 66.9854 36.5498 67.7682 35.769C68.549 34.9882 69.4673 32.9504 70.0449 31.1686C70.6226 29.3848 70.9399 27.8633 70.9399 27.8633L70.9378 27.8612C71.0436 27.3597 71.4858 27 72 27Z" fill="white"/>
<path d="M80.5 67C80.8742 67 81.1973 67.2629 81.2746 67.6294C81.2746 67.6294 81.5066 68.7427 81.9287 70.0448C82.3508 71.3484 83.0203 72.836 83.5908 73.4066C84.1614 73.9772 85.6504 74.6467 86.9524 75.0689C88.2558 75.491 89.3691 75.723 89.3691 75.723V75.7245C89.7371 75.8018 90 76.125 90 76.4992C90 76.875 89.7371 77.1982 89.3691 77.2755C89.3691 77.2755 88.2558 77.5074 86.9524 77.9296C85.6489 78.3517 84.1614 79.0213 83.5908 79.5919C83.0203 80.1625 82.3508 81.6516 81.9287 82.9537C81.5065 84.2573 81.2746 85.3691 81.2746 85.3691V85.3707C81.1973 85.7371 80.8742 86 80.5 86C80.1242 86 79.8011 85.7371 79.7238 85.3707C79.7238 85.3707 79.4919 84.2573 79.0697 82.9552C78.6476 81.6516 77.9781 80.164 77.406 79.5934C76.8355 79.0228 75.3465 78.3533 74.043 77.9311C72.7395 77.509 71.6278 77.277 71.6278 77.277L71.6293 77.2755C71.2628 77.1982 71 76.875 71 76.4992C71 76.125 71.2629 75.8018 71.6293 75.7245C71.6293 75.7245 72.7426 75.4926 74.0445 75.0704C75.348 74.6483 76.8355 73.9787 77.4076 73.4081C77.9781 72.8375 78.6492 71.3484 79.0713 70.0463C79.4934 68.7427 79.7253 67.6309 79.7253 67.6309L79.7238 67.6293C79.8011 67.2629 80.1243 67 80.5 67Z" fill="white"/>
<defs>
<filter id="filter0_i_267_568" x="0" y="-6" width="114" height="120" filterUnits="userSpaceOnUse" color-interpolation-filters="sRGB">
<feFlood flood-opacity="0" result="BackgroundImageFix"/>
<feBlend mode="normal" in="SourceGraphic" in2="BackgroundImageFix" result="shape"/>
<feColorMatrix in="SourceAlpha" type="matrix" values="0 0 0 0 0 0 0 0 0 0 0 0 0 0 0 0 0 0 127 0" result="hardAlpha"/>
<feMorphology radius="1" operator="erode" in="SourceAlpha" result="effect1_innerShadow_267_568"/>
<feOffset dy="-6"/>
<feGaussianBlur stdDeviation="12"/>
<feComposite in2="hardAlpha" operator="arithmetic" k2="-1" k3="1"/>
<feColorMatrix type="matrix" values="0 0 0 0 0 0 0 0 0 0 0 0 0 0 0 0 0 0 0.25 0"/>
<feBlend mode="normal" in2="shape" result="effect1_innerShadow_267_568"/>
</filter>
<linearGradient id="paint0_linear_267_568" x1="57" y1="0" x2="57" y2="114" gradientUnits="userSpaceOnUse">
<stop stop-color="#FF8567"/>
<stop offset="0.485577" stop-color="#FF6945"/>
<stop offset="1" stop-color="#FD5E37"/>
</linearGradient>
</defs>
</svg>
