<svg width="20" height="20" viewBox="0 0 20 20" fill="none" xmlns="http://www.w3.org/2000/svg">
<path fill-rule="evenodd" clip-rule="evenodd" d="M9.99996 2.49967C8.61925 2.49967 7.49996 3.61896 7.49996 4.99967C7.49996 6.38039 8.61925 7.49967 9.99996 7.49967C11.3807 7.49967 12.5 6.38039 12.5 4.99967C12.5 3.61896 11.3807 2.49967 9.99996 2.49967ZM5.83329 4.99967C5.83329 2.69849 7.69877 0.833008 9.99996 0.833008C12.3011 0.833008 14.1666 2.69849 14.1666 4.99967C14.1666 7.30086 12.3011 9.16634 9.99996 9.16634C7.69877 9.16634 5.83329 7.30086 5.83329 4.99967ZM1.66663 18.333C1.66663 13.7306 5.3976 9.99967 9.99996 9.99967C14.6023 9.99967 18.3333 13.7306 18.3333 18.333C18.3333 18.7932 17.9602 19.1663 17.5 19.1663C17.0397 19.1663 16.6666 18.7932 16.6666 18.333C16.6666 14.6511 13.6818 11.6663 9.99996 11.6663C6.31807 11.6663 3.33329 14.6511 3.33329 18.333C3.33329 18.7932 2.9602 19.1663 2.49996 19.1663C2.03972 19.1663 1.66663 18.7932 1.66663 18.333Z" fill="#38D0FF"/>
</svg>
